# xmcd
#
# Track frame offsets:
#	150
#	32812
#	48492
#	49562
#	57332
#	58815
#	72669
#	73093
#	88759
#	89954
#	104574
#	104893
#	115495
#	128392
#	149122
#	150244
#	159122
#	160635
#	172052
#	174285
#	183479
#	186245
#	198214
#	206608
#	220723
#	221036
#	230665
#	231006
#	250645
#	252548
#
# Disc length: 3476 seconds
#
# Revision: 0
# Processed by: cddbd v1.5.2PL0 Copyright (c) Steve Scherf et al.
# Submitted via: EasyCDDAExtractor 8.2.1.1
#
DISCID=c70d921e
DTITLE=Charles Trenet - Recital inedit a La varenne Saint-Hilaire, 1954
DYEAR=2005
DGENRE=Chanson
TTITLE0=01.Generique et presentation
TTITLE1=02.Retour a Paris [Revoir Paris] (1947)
TTITLE2=03.Texte
TTITLE3=04.Boum (1938)
TTITLE4=05.Texte
TTITLE5=06.Debit de l'eau, debit de lait (1943)
TTITLE6=07.Texte
TTITLE7=08.L'ame des poetes (1952)
TTITLE8=09.Texte
TTITLE9=10.Mam'zelle Clio (1939)
TTITLE10=11.Texte
TTITLE11=12.Dans les pharmacies (1952)
TTITLE12=13.Texte
TTITLE13=14.Les boeufs (1951)
TTITLE14=15.Texte
TTITLE15=16.En avril a Paris (1953, creation)
TTITLE16=17.Texte
TTITLE17=18.Paule sur mes epaules (1954, creation)
TTITLE18=19.Texte
TTITLE19=20.La jolie sardane (1952)
TTITLE20=21.Texte
TTITLE21=22.Le roi Dagobert (1949)
TTITLE22=23.Texte
TTITLE23=24.Le serpent python (1951)
TTITLE24=25.Texte
TTITLE25=26.Y'a d'la joie (1937)
TTITLE26=27.Texte
TTITLE27=28.La mer (1945)
TTITLE28=29.Texte
TTITLE29=30.Generique de fin
EXTD=
EXTT0=
EXTT1=
EXTT2=
EXTT3=
EXTT4=
EXTT5=
EXTT6=
EXTT7=
EXTT8=
EXTT9=
EXTT10=
EXTT11=
EXTT12=
EXTT13=
EXTT14=
EXTT15=
EXTT16=
EXTT17=
EXTT18=
EXTT19=
EXTT20=
EXTT21=
EXTT22=
EXTT23=
EXTT24=
EXTT25=
EXTT26=
EXTT27=
EXTT28=
EXTT29=
PLAYORDER=
